<svg width="58" height="58" viewBox="0 0 58 58" fill="none" xmlns="http://www.w3.org/2000/svg">
<path d="M1.8125 35.8872C2.29321 35.8872 2.75422 36.0782 3.09413 36.4181C3.43404 36.758 3.625 37.219 3.625 37.6997V46.7622C3.625 47.7236 4.00692 48.6457 4.68674 49.3255C5.36656 50.0053 6.28859 50.3872 7.25 50.3872H50.75C51.7114 50.3872 52.6334 50.0053 53.3133 49.3255C53.9931 48.6457 54.375 47.7236 54.375 46.7622V37.6997C54.375 37.219 54.566 36.758 54.9059 36.4181C55.2458 36.0782 55.7068 35.8872 56.1875 35.8872C56.6682 35.8872 57.1292 36.0782 57.4691 36.4181C57.809 36.758 58 37.219 58 37.6997V46.7622C58 48.685 57.2362 50.5291 55.8765 51.8887C54.5169 53.2484 52.6728 54.0122 50.75 54.0122H7.25C5.32718 54.0122 3.48311 53.2484 2.12348 51.8887C0.763837 50.5291 0 48.685 0 46.7622V37.6997C0 37.219 0.190959 36.758 0.530869 36.4181C0.870779 36.0782 1.3318 35.8872 1.8125 35.8872Z" fill="black"/>
<path d="M27.7168 42.9707C27.8852 43.1395 28.0852 43.2735 28.3054 43.3648C28.5256 43.4562 28.7617 43.5032 29.0001 43.5032C29.2385 43.5032 29.4746 43.4562 29.6948 43.3648C29.915 43.2735 30.115 43.1395 30.2833 42.9707L41.1583 32.0958C41.4987 31.7554 41.6899 31.2938 41.6899 30.8125C41.6899 30.3312 41.4987 29.8696 41.1583 29.5292C40.818 29.1889 40.3564 28.9977 39.8751 28.9977C39.3938 28.9977 38.9322 29.1889 38.5918 29.5292L30.8126 37.3121V5.4375C30.8126 4.9568 30.6216 4.49578 30.2817 4.15587C29.9418 3.81596 29.4808 3.625 29.0001 3.625C28.5194 3.625 28.0584 3.81596 27.7185 4.15587C27.3786 4.49578 27.1876 4.9568 27.1876 5.4375V37.3121L19.4083 29.5292C19.068 29.1889 18.6064 28.9977 18.1251 28.9977C17.6438 28.9977 17.1822 29.1889 16.8418 29.5292C16.5015 29.8696 16.3103 30.3312 16.3103 30.8125C16.3103 31.2938 16.5015 31.7554 16.8418 32.0958L27.7168 42.9707Z" fill="black"/>
</svg>
