<?xml version="1.0" encoding="UTF-8" standalone="no"?>
<svg
   xmlns:dc="http://purl.org/dc/elements/1.1/"
   xmlns:cc="http://creativecommons.org/ns#"
   xmlns:rdf="http://www.w3.org/1999/02/22-rdf-syntax-ns#"
   xmlns:svg="http://www.w3.org/2000/svg"
   xmlns="http://www.w3.org/2000/svg"
   xmlns:sodipodi="http://sodipodi.sourceforge.net/DTD/sodipodi-0.dtd"
   xmlns:inkscape="http://www.inkscape.org/namespaces/inkscape"
   inkscape:version="1.0 (4035a4fb49, 2020-05-01)"
   sodipodi:docname="forward.svg"
   id="svg6"
   version="1.1"
   fill="none"
   viewBox="0 0 58 58"
   height="58"
   width="58">
  <metadata
     id="metadata12">
    <rdf:RDF>
      <cc:Work
         rdf:about="">
        <dc:format>image/svg+xml</dc:format>
        <dc:type
           rdf:resource="http://purl.org/dc/dcmitype/StillImage" />
      </cc:Work>
    </rdf:RDF>
  </metadata>
  <defs
     id="defs10" />
  <sodipodi:namedview
     inkscape:current-layer="svg6"
     inkscape:window-maximized="1"
     inkscape:window-y="-7"
     inkscape:window-x="-7"
     inkscape:cy="56.171127"
     inkscape:cx="38.172805"
     inkscape:zoom="4.7355485"
     showgrid="false"
     id="namedview8"
     inkscape:window-height="1010"
     inkscape:window-width="1920"
     inkscape:pageshadow="2"
     inkscape:pageopacity="0"
     guidetolerance="10"
     gridtolerance="10"
     objecttolerance="10"
     borderopacity="1"
     bordercolor="#666666"
     pagecolor="#ffffff" />
  <path
     style="fill:#ffffff"
     id="path4"
     fill="#000000"
     d="m 48.4066,30.2833 c 0.1688,-0.1684 0.3028,-0.3684 0.3941,-0.5886 0.0914,-0.2202 0.1384,-0.4563 0.1384,-0.6947 0,-0.2384 -0.047,-0.4745 -0.1384,-0.6947 -0.0913,-0.2202 -0.2253,-0.4202 -0.3941,-0.5885 L 37.5317,16.8418 c -0.3404,-0.3404 -0.802,-0.5316 -1.2833,-0.5316 -0.4813,0 -0.9429,0.1912 -1.2833,0.5316 -0.3403,0.3403 -0.5315,0.8019 -0.5315,1.2832 0,0.4813 0.1912,0.9429 0.5315,1.2833 l 7.7829,7.7792 H 10.8734 c -0.4807,0 -0.9417,0.191 -1.2816,0.5309 C 9.2519,28.0583 9.0609,28.5193 9.0609,29 c 0,0.4807 0.191,0.9417 0.5309,1.2816 0.3399,0.3399 0.8009,0.5309 1.2816,0.5309 H 42.748 l -7.7829,7.7793 c -0.3403,0.3403 -0.5315,0.8019 -0.5315,1.2832 0,0.4813 0.1912,0.9429 0.5315,1.2833 0.3404,0.3403 0.802,0.5315 1.2833,0.5315 0.4813,0 0.9429,-0.1912 1.2833,-0.5315 z" />
</svg>
