<svg width="53" height="53" viewBox="0 0 53 53" fill="none" xmlns="http://www.w3.org/2000/svg">
<g clip-path="url(#clip0)">
<path fill-rule="evenodd" clip-rule="evenodd" d="M49.2038 16.079C49.3581 15.9252 49.4805 15.7424 49.564 15.5412C49.6475 15.34 49.6904 15.1242 49.6904 14.9064C49.6904 14.6885 49.6475 14.4728 49.564 14.2716C49.4805 14.0704 49.3581 13.8876 49.2038 13.7338L35.9538 0.483764C35.6428 0.172765 35.221 -0.00195312 34.7812 -0.00195312C34.3414 -0.00195313 33.9196 0.172765 33.6086 0.483764C33.2976 0.794764 33.1229 1.21657 33.1229 1.65639C33.1229 2.09621 33.2976 2.51801 33.6086 2.82901L44.033 13.2501H11.5937C9.3974 13.2501 7.29103 14.1226 5.73799 15.6757C4.18496 17.2287 3.31247 19.3351 3.31247 21.5314V48.0314C3.31247 48.4707 3.48697 48.8919 3.79757 49.2025C4.10818 49.5131 4.52945 49.6876 4.96872 49.6876C5.40799 49.6876 5.82926 49.5131 6.13987 49.2025C6.45047 48.8919 6.62497 48.4707 6.62497 48.0314V21.5314C6.62497 20.2136 7.14846 18.9498 8.08028 18.018C9.0121 17.0861 10.2759 16.5626 11.5937 16.5626H44.033L33.6086 26.9838C33.4546 27.1378 33.3325 27.3206 33.2491 27.5218C33.1658 27.723 33.1229 27.9386 33.1229 28.1564C33.1229 28.3742 33.1658 28.5898 33.2491 28.791C33.3325 28.9922 33.4546 29.175 33.6086 29.329C33.7626 29.483 33.9454 29.6052 34.1466 29.6885C34.3478 29.7718 34.5634 29.8147 34.7812 29.8147C34.999 29.8147 35.2146 29.7718 35.4158 29.6885C35.617 29.6052 35.7999 29.483 35.9538 29.329L49.2038 16.079Z" fill="black"/>
</g>
<defs>
<clipPath id="clip0">
<rect width="53" height="53" fill="white" transform="matrix(-1 0 0 1 53 0)"/>
</clipPath>
</defs>
</svg>
