<svg width="53" height="53" viewBox="0 0 53 53" fill="none" xmlns="http://www.w3.org/2000/svg">
<g clip-path="url(#clip0)">
<path fill-rule="evenodd" clip-rule="evenodd" d="M3.79616 16.079C3.64192 15.9252 3.51954 15.7424 3.43605 15.5412C3.35255 15.34 3.30957 15.1242 3.30957 14.9064C3.30957 14.6885 3.35255 14.4728 3.43605 14.2716C3.51954 14.0704 3.64192 13.8876 3.79616 13.7338L17.0462 0.483764C17.3572 0.172765 17.779 -0.00195312 18.2188 -0.00195312C18.6586 -0.00195313 19.0804 0.172765 19.3914 0.483764C19.7024 0.794764 19.8771 1.21657 19.8771 1.65639C19.8771 2.09621 19.7024 2.51801 19.3914 2.82901L8.96697 13.2501H41.4063C43.6026 13.2501 45.709 14.1226 47.262 15.6757C48.815 17.2287 49.6875 19.3351 49.6875 21.5314V48.0314C49.6875 48.4707 49.513 48.8919 49.2024 49.2025C48.8918 49.5131 48.4705 49.6876 48.0313 49.6876C47.592 49.6876 47.1707 49.5131 46.8601 49.2025C46.5495 48.8919 46.375 48.4707 46.375 48.0314V21.5314C46.375 20.2136 45.8515 18.9498 44.9197 18.018C43.9879 17.0861 42.7241 16.5626 41.4063 16.5626H8.96697L19.3914 26.9838C19.5454 27.1378 19.6675 27.3206 19.7509 27.5218C19.8342 27.723 19.8771 27.9386 19.8771 28.1564C19.8771 28.3742 19.8342 28.5898 19.7509 28.791C19.6675 28.9922 19.5454 29.175 19.3914 29.329C19.2374 29.483 19.0546 29.6052 18.8534 29.6885C18.6522 29.7718 18.4366 29.8147 18.2188 29.8147C18.001 29.8147 17.7854 29.7718 17.5842 29.6885C17.383 29.6052 17.2001 29.483 17.0462 29.329L3.79616 16.079Z" fill="black"/>
</g>
<defs>
<clipPath id="clip0">
<rect width="53" height="53" fill="white"/>
</clipPath>
</defs>
</svg>
