<svg width="23" height="23" viewBox="0 0 23 23" fill="none" xmlns="http://www.w3.org/2000/svg">
<path d="M0.71875 14.25C0.909374 14.25 1.09219 14.3257 1.22698 14.4605C1.36177 14.5953 1.4375 14.7781 1.4375 14.9688V18.5625C1.4375 18.9437 1.58895 19.3094 1.85853 19.579C2.12812 19.8486 2.49375 20 2.875 20H20.125C20.5062 20 20.8719 19.8486 21.1415 19.579C21.411 19.3094 21.5625 18.9437 21.5625 18.5625V14.9688C21.5625 14.7781 21.6382 14.5953 21.773 14.4605C21.9078 14.3257 22.0906 14.25 22.2812 14.25C22.4719 14.25 22.6547 14.3257 22.7895 14.4605C22.9243 14.5953 23 14.7781 23 14.9688V18.5625C23 19.325 22.6971 20.0563 22.1579 20.5954C21.6188 21.1346 20.8875 21.4375 20.125 21.4375H2.875C2.1125 21.4375 1.38124 21.1346 0.842068 20.5954C0.302901 20.0563 0 19.325 0 18.5625V14.9688C0 14.7781 0.0757252 14.5953 0.210517 14.4605C0.345309 14.3257 0.528126 14.25 0.71875 14.25V14.25Z" fill="black"/>
<path d="M10.9912 1.64768C11.0579 1.58075 11.1373 1.52764 11.2246 1.49141C11.3119 1.45517 11.4055 1.43652 11.5001 1.43652C11.5946 1.43652 11.6882 1.45517 11.7755 1.49141C11.8628 1.52764 11.9422 1.58075 12.0089 1.64768L16.3214 5.96018C16.4564 6.09514 16.5322 6.27819 16.5322 6.46906C16.5322 6.65992 16.4564 6.84297 16.3214 6.97793C16.1865 7.1129 16.0034 7.18872 15.8126 7.18872C15.6217 7.18872 15.4386 7.1129 15.3037 6.97793L12.2188 3.89162V16.5316C12.2188 16.7222 12.1431 16.905 12.0083 17.0398C11.8735 17.1746 11.6907 17.2503 11.5001 17.2503C11.3094 17.2503 11.1266 17.1746 10.9918 17.0398C10.857 16.905 10.7813 16.7222 10.7813 16.5316V3.89162L7.69643 6.97793C7.6296 7.04476 7.55027 7.09777 7.46296 7.13394C7.37564 7.1701 7.28206 7.18872 7.18755 7.18872C7.09305 7.18872 6.99947 7.1701 6.91215 7.13394C6.82484 7.09777 6.74551 7.04476 6.67868 6.97793C6.61185 6.91111 6.55884 6.83177 6.52268 6.74446C6.48651 6.65715 6.4679 6.56356 6.4679 6.46906C6.4679 6.37455 6.48651 6.28097 6.52268 6.19366C6.55884 6.10634 6.61185 6.02701 6.67868 5.96018L10.9912 1.64768Z" fill="black"/>
</svg>
