<svg width="58" height="58" viewBox="0 0 58 58" fill="none" xmlns="http://www.w3.org/2000/svg">
<path d="M56.1875 22.1128C55.7068 22.1128 55.2458 21.9218 54.9059 21.5819C54.566 21.242 54.375 20.781 54.375 20.3003V11.2378C54.375 10.2764 53.9931 9.35435 53.3133 8.67453C52.6334 7.99471 51.7114 7.61279 50.75 7.61279L7.25 7.61279C6.28859 7.61279 5.36656 7.99471 4.68674 8.67453C4.00692 9.35435 3.625 10.2764 3.625 11.2378V20.3003C3.625 20.781 3.43404 21.242 3.09413 21.5819C2.75422 21.9218 2.29321 22.1128 1.8125 22.1128C1.33179 22.1128 0.870777 21.9218 0.530869 21.5819C0.190956 21.242 0 20.781 0 20.3003V11.2378C0 9.31497 0.76384 7.47091 2.12348 6.11127C3.48312 4.75163 5.32718 3.98779 7.25 3.98779L50.75 3.98779C52.6728 3.98779 54.5169 4.75163 55.8765 6.11127C57.2362 7.47091 58 9.31497 58 11.2378V20.3003C58 20.781 57.809 21.242 57.4691 21.5819C57.1292 21.9218 56.6682 22.1128 56.1875 22.1128Z" fill="black"/>
<path d="M30.2832 15.0293C30.1148 14.8605 29.9148 14.7265 29.6946 14.6352C29.4744 14.5438 29.2383 14.4968 28.9999 14.4968C28.7615 14.4968 28.5254 14.5438 28.3052 14.6352C28.085 14.7265 27.885 14.8605 27.7167 15.0293L16.8417 25.9042C16.5013 26.2446 16.3101 26.7062 16.3101 27.1875C16.3101 27.6688 16.5013 28.1304 16.8417 28.4708C17.182 28.8111 17.6436 29.0023 18.1249 29.0023C18.6062 29.0023 19.0678 28.8111 19.4082 28.4708L27.1874 20.6879L27.1874 52.5625C27.1874 53.0432 27.3784 53.5042 27.7183 53.8441C28.0582 54.184 28.5192 54.375 28.9999 54.375C29.4806 54.375 29.9416 54.184 30.2815 53.8441C30.6214 53.5042 30.8124 53.0432 30.8124 52.5625L30.8124 20.6879L38.5917 28.4708C38.932 28.8111 39.3936 29.0023 39.8749 29.0023C40.3562 29.0023 40.8178 28.8111 41.1582 28.4708C41.4985 28.1304 41.6897 27.6688 41.6897 27.1875C41.6897 26.7062 41.4985 26.2446 41.1582 25.9042L30.2832 15.0293Z" fill="black"/>
</svg>
