<?xml version="1.0" encoding="UTF-8" standalone="no"?>
<svg
   xmlns:dc="http://purl.org/dc/elements/1.1/"
   xmlns:cc="http://creativecommons.org/ns#"
   xmlns:rdf="http://www.w3.org/1999/02/22-rdf-syntax-ns#"
   xmlns:svg="http://www.w3.org/2000/svg"
   xmlns="http://www.w3.org/2000/svg"
   xmlns:sodipodi="http://sodipodi.sourceforge.net/DTD/sodipodi-0.dtd"
   xmlns:inkscape="http://www.inkscape.org/namespaces/inkscape"
   width="678.08527mm"
   height="130.45981mm"
   viewBox="0 0 678.08527 130.45981"
   version="1.1"
   id="svg8"
   inkscape:version="1.0 (4035a4fb49, 2020-05-01)"
   sodipodi:docname="hr.svg">
  <defs
     id="defs2">
    <inkscape:path-effect
       back_thickness="0.25"
       front_thickness="1"
       stroke_width_bottom="1"
       stroke_width_top="1"
       fat_output="true"
       bottom_smth_variation="0;1"
       top_smth_variation="0;1"
       scale_tb="1"
       scale_tf="1"
       scale_bb="1"
       scale_bf="1"
       top_tgt_variation="0;1"
       bottom_tgt_variation="0;1"
       top_edge_variation="0;1"
       bottom_edge_variation="0;1"
       bender="120.25779,83.388095 , 31.192417,-1.6036171"
       do_bend="false"
       growth="0"
       dist_rdm="75;1"
       direction="302.53561,94.958805 , 86.449106,-8.6174751"
       lpeversion="1"
       is_visible="true"
       id="path-effect845"
       effect="rough_hatches" />
  </defs>
  <sodipodi:namedview
     id="base"
     pagecolor="#ffffff"
     bordercolor="#666666"
     borderopacity="1.0"
     inkscape:pageopacity="0.0"
     inkscape:pageshadow="2"
     inkscape:zoom="0.24748738"
     inkscape:cx="1929.2284"
     inkscape:cy="-14.383755"
     inkscape:document-units="mm"
     inkscape:current-layer="layer1"
     inkscape:document-rotation="0"
     showgrid="false"
     fit-margin-top="0"
     fit-margin-left="0"
     fit-margin-right="0"
     fit-margin-bottom="0"
     inkscape:window-width="1920"
     inkscape:window-height="1010"
     inkscape:window-x="-7"
     inkscape:window-y="-7"
     inkscape:window-maximized="1" />
  <metadata
     id="metadata5">
    <rdf:RDF>
      <cc:Work
         rdf:about="">
        <dc:format>image/svg+xml</dc:format>
        <dc:type
           rdf:resource="http://purl.org/dc/dcmitype/StillImage" />
        <dc:title></dc:title>
      </cc:Work>
    </rdf:RDF>
  </metadata>
  <g
     inkscape:label="Ebene 1"
     inkscape:groupmode="layer"
     id="layer1"
     transform="translate(39.66765,20.500883)">
    <path
       inkscape:original-d="M 15.501633,103.16604 H 544.6683"
       inkscape:path-effect="#path-effect845"
       style="fill:none;stroke:#000000;stroke-width:2;stroke-linecap:round;stroke-linejoin:round;stroke-miterlimit:4;stroke-dasharray:none;stroke-opacity:1"
       d="m 530.35484,103.16604 c 0,0 0.12562,0 -10.72594,0 -11.22842,0 -11.32761,-0.99507 -25.3367,-0.99507 -14.38594,0 -14.28675,0.99507 -27.69616,0.99507 l 0.0992,0.99507 c 13.15817,0 13.05898,-0.99507 27.69617,-0.99507 15.01404,0 15.11323,0.99507 25.33669,0.99507 10.60032,0 10.62675,-0.99507 10.62675,-0.99507 z m -85.7052,0 c 0,0 0.12562,0 -8.83312,0 -9.33561,0 -9.4348,-0.99507 -21.34645,-0.99507 -12.2885,0 -12.18931,0.99507 -25.54756,0.99507 -13.73512,0 -13.83431,-0.99507 -28.50844,-0.99507 -15.05099,0 -14.95179,0.99507 -20.68764,0.99507 -6.11271,0 -6.2119,-0.99507 -11.83122,-0.99507 -5.99618,0 -5.89699,0.99507 -15.98119,0.99507 -10.46106,0 -10.56025,-0.99507 -16.58883,-0.99507 -6.40544,0 -6.30625,0.99507 -15.77657,0.99507 -9.84717,0 -9.94636,-0.99507 -23.18809,-0.99507 -13.61859,0 -13.5194,0.99507 -24.98484,0.99507 -11.8423,0 -11.9415,-0.99507 -17.25387,-0.99507 -5.68924,0 -5.59005,0.99507 -9.07499,0.99507 -3.86179,0 -3.96098,-0.99507 -6.51088,-0.99507 -2.92675,0 -2.82756,0.99507 -12.91176,0.99507 l 0.0992,0.99507 c 9.83296,0 9.73377,-0.99507 12.91176,-0.99507 3.55486,0 3.65405,0.99507 6.51088,0.99507 3.2337,0 3.13451,-0.99507 9.07499,-0.99507 6.31733,0 6.41652,0.99507 17.25387,0.99507 11.2142,0 11.11501,-0.99507 24.98484,-0.99507 14.24669,0 14.34588,0.99507 23.1881,0.99507 9.21907,0 9.11988,-0.99507 15.77656,-0.99507 7.03353,0 7.13272,0.99507 16.58883,0.99507 9.83296,0 9.73377,-0.99507 15.98119,-0.99507 6.62428,0 6.72347,0.99507 11.83122,0.99507 5.48461,0 5.38542,-0.99507 20.68764,-0.99507 15.67909,0 15.77828,0.99507 28.50844,0.99507 13.10701,0 13.00782,-0.99507 25.54757,-0.99507 12.9166,0 13.01579,0.99507 21.34644,0.99507 8.7075,0 8.73393,-0.99507 8.73393,-0.99507 z m -281.94383,0 c 0,0 0.12562,0 -4.58709,0 -5.08956,0 -5.18876,-0.99507 -7.73865,-0.99507 -2.92676,0 -2.82756,0.99507 -7.43796,0.99507 -4.98725,0 -5.08644,-0.99507 -7.02245,-0.99507 l 0.0992,0.99507 c 2.94097,0 3.04016,0.99507 7.02245,0.99507 4.35916,0 4.25997,-0.99507 7.43796,-0.99507 3.55485,0 3.65404,0.99507 7.73865,0.99507 4.46147,0 4.4879,-0.99507 4.4879,-0.99507 z m -42.4945,0 c 0,0 0.12562,0 -14.71619,0 l 0.0992,0.99507 c 14.59057,0 14.617,-0.99507 14.617,-0.99507 z m -44.745413,0 c 0,0 0.12562,0 -13.130322,0 -13.632801,0 -13.731992,-0.99507 -22.369583,-0.99507 -9.014449,0 -8.915258,0.99507 -11.58168,0.99507 l 0.09919,0.99507 c 2.415183,0 2.315992,-0.99507 11.58168,-0.99507 9.642547,0 9.741738,0.99507 22.369583,0.99507 13.004703,0 13.031131,-0.99507 13.031131,-0.99507 z"
       id="path10" />
    <path
       sodipodi:nodetypes="ssccssccssscs"
       d="m 30.35341,105.06178 c -7.16196,1.45031 -16.329733,7.20182 -39.0108951,3.8794 -8.6463329,-1.26655 -8.5317639,-6.10102 -11.2342139,-5.48218 -7.41171,-0.10953 -13.87949,-1.02248 -19.77094,-4.882032 -0.1676,-24.439631 3.89234,-20.813235 8.68143,-28.288083 1.64141,-2.561931 -0.056,-7.265118 8.37105,-7.671806 14.1381706,-0.682309 10.95458,5.803877 13.1223906,7.594994 5.68286,6.753735 8.43777,4.482905 10.39416996,24.020555 2.03711004,1.57759 12.36148444,2.537662 14.30303144,3.019018 11.607984,2.877914 22.975039,6.224334 15.143977,7.810134 z M -27.201079,67.814183 c 3.41983,3.793095 16.596,1.528423 12.84443,-2.452813 -4.28748,-2.804129 -15.23847,-0.202539 -12.84443,2.452813 z"
       style="stroke-width:1.24461"
       id="path4" />
    <path
       d="m 635.60101,-15.181755 c 5.7969,1.787219 -3.4939,7.1560536 -0.46886,10.025734 -3.77527,4.97465184 -5.53092,11.1863593 -9.84506,15.794817 -3.69944,6.354255 -9.64285,10.727053 -14.90706,15.643171 -3.40374,6.700323 -10.70281,10.143695 -15.2278,16.175777 -4.58605,5.002353 -11.42431,7.564938 -15.83025,12.873591 -4.56021,5.823754 -9.79464,11.399245 -12.35237,18.475775 -4.06947,6.532326 -11.58407,9.34338 -18.71003,11.0001 -6.72622,2.245377 -9.48147,8.956795 -12.89435,14.477022 -1.18832,3.202588 -7.19589,5.961228 -3.82584,0.464411 3.7412,-6.452502 10.29119,-11.459404 10.72174,-19.475001 2.14008,-8.119568 4.34217,-16.216526 6.58877,-24.307044 3.897,-5.296169 5.91704,-12.740291 11.44828,-16.831204 2.23461,-5.88506 7.93964,-9.526269 10.56278,-15.257416 4.19412,-4.919665 7.71359,-10.609025 12.67045,-14.7513739 4.46667,-2.0216037 5.11622,-7.4680328 10.31603,-7.1250038 2.12165,-6.7213902 8.62197,-7.8152477 13.53689,-11.8344777 5.30811,-3.0916726 10.83862,-4.6879336 15.92595,-8.2230996 4.81373,-1.115802 12.29803,-4.073666 14.95856,-0.156673 -0.57806,1.230461 -1.53572,2.285597 -2.66783,3.030895 z"
       style="stroke-width:1.66627"
       id="path2" />
  </g>
</svg>
