<?xml version="1.0" encoding="UTF-8" standalone="no"?>
<svg
   xmlns:dc="http://purl.org/dc/elements/1.1/"
   xmlns:cc="http://creativecommons.org/ns#"
   xmlns:rdf="http://www.w3.org/1999/02/22-rdf-syntax-ns#"
   xmlns:svg="http://www.w3.org/2000/svg"
   xmlns="http://www.w3.org/2000/svg"
   xmlns:sodipodi="http://sodipodi.sourceforge.net/DTD/sodipodi-0.dtd"
   xmlns:inkscape="http://www.inkscape.org/namespaces/inkscape"
   sodipodi:docname="hr2.svg"
   inkscape:version="1.0 (4035a4fb49, 2020-05-01)"
   id="svg8"
   version="1.1"
   viewBox="0 0 678.08527 80.000001"
   height="80mm"
   width="678.08527mm">
  <defs
     id="defs2">
    <inkscape:path-effect
       effect="rough_hatches"
       id="path-effect845"
       is_visible="true"
       lpeversion="1"
       direction="302.53561,94.958805 , 86.449106,-8.6174751"
       dist_rdm="75;1"
       growth="0"
       do_bend="false"
       bender="120.25779,83.388095 , 31.192417,-1.6036171"
       bottom_edge_variation="0;1"
       top_edge_variation="0;1"
       bottom_tgt_variation="0;1"
       top_tgt_variation="0;1"
       scale_bf="1"
       scale_bb="1"
       scale_tf="1"
       scale_tb="1"
       top_smth_variation="0;1"
       bottom_smth_variation="0;1"
       fat_output="true"
       stroke_width_top="1"
       stroke_width_bottom="1"
       front_thickness="1"
       back_thickness="0.25" />
  </defs>
  <sodipodi:namedview
     inkscape:window-maximized="1"
     inkscape:window-y="-7"
     inkscape:window-x="-7"
     inkscape:window-height="1010"
     inkscape:window-width="1920"
     fit-margin-bottom="0"
     fit-margin-right="0"
     fit-margin-left="0"
     fit-margin-top="0"
     showgrid="false"
     inkscape:document-rotation="0"
     inkscape:current-layer="layer1"
     inkscape:document-units="mm"
     inkscape:cy="204.02332"
     inkscape:cx="1713.3879"
     inkscape:zoom="0.35000001"
     inkscape:pageshadow="2"
     inkscape:pageopacity="0.0"
     borderopacity="1.0"
     bordercolor="#666666"
     pagecolor="#ffffff"
     id="base" />
  <metadata
     id="metadata5">
    <rdf:RDF>
      <cc:Work
         rdf:about="">
        <dc:format>image/svg+xml</dc:format>
        <dc:type
           rdf:resource="http://purl.org/dc/dcmitype/StillImage" />
        <dc:title></dc:title>
      </cc:Work>
    </rdf:RDF>
  </metadata>
  <g
     transform="translate(39.66765,20.500883)"
     id="layer1"
     inkscape:groupmode="layer"
     inkscape:label="Ebene 1">
    <path
       sodipodi:nodetypes="cc"
       id="path10"
       d="m 607.24091,-1.386274 c 0,0 0.12561,0 -10.72594,0 -11.22842,0 -11.32761,-0.9950684 -25.3367,-0.9950684 -14.38594,0 -14.28675,0.9950684 -27.69616,0.9950684 -13.78628,0 -13.88547,-0.9950684 -17.71429,-0.9950684 -4.20568,0 -4.10649,0.9950684 -13.06524,0.9950684 l 0.0992,0.99506841 c 8.70751,0 8.60832,-0.99506841 13.06524,-0.99506841 4.83378,0 4.93297,0.99506841 17.71429,0.99506841 13.15817,0 13.05898,-0.99506841 27.69616,-0.99506841 15.01405,0 15.11324,0.99506841 25.3367,0.99506841 10.60032,0 10.62675,-0.99506841 10.62675,-0.99506841 z m -128.1997,0 c 0,0 0.12562,0 -13.23264,0 l 0.0992,0.99506841 c 13.10701,0 13.13344,-0.99506841 13.13344,-0.99506841 z m -56.81849,0 c 0,0 0.12562,0 -5.61022,0 -6.11271,0 -6.2119,-0.9950684 -11.83122,-0.9950684 -5.99618,0 -5.89699,0.9950684 -15.98119,0.9950684 -10.46107,0 -10.56026,-0.9950684 -16.58883,-0.9950684 -6.40544,0 -6.30625,0.9950684 -15.77657,0.9950684 -9.84717,0 -9.94636,-0.9950684 -23.18809,-0.9950684 -13.61859,0 -13.5194,0.9950684 -24.98484,0.9950684 l 0.0992,0.99506841 c 11.2142,0 11.11501,-0.99506841 24.98484,-0.99506841 14.24668,0 14.34587,0.99506841 23.18809,0.99506841 9.21908,0 9.11989,-0.99506841 15.77657,-0.99506841 7.03353,0 7.13272,0.99506841 16.58883,0.99506841 9.83296,0 9.73377,-0.99506841 15.98119,-0.99506841 6.62427,0 6.72347,0.99506841 11.83122,0.99506841 5.48461,0 5.51103,-0.99506841 5.51103,-0.99506841 z m -136.9305,0 c 0,0 0.12562,0 -3.35932,0 l 0.0992,0.99506841 c 3.2337,0 3.26013,-0.99506841 3.26013,-0.99506841 z m -12.82338,0 c 0,0 0.12562,0 -9.95858,0 -10.46106,0 -10.56026,-0.9950684 -16.53768,-0.9950684 -6.35428,0 -6.25509,0.9950684 -10.96779,0.9950684 -5.08957,0 -5.18876,-0.9950684 -7.73865,-0.9950684 l 0.0992,0.9950684 c 3.55485,0 3.65404,0.99506841 7.73865,0.99506841 4.46147,0 4.36227,-0.99506841 10.96779,-0.99506841 6.98238,0 7.08157,0.99506841 16.53768,0.99506841 9.83296,0 9.85939,-0.99506841 9.85939,-0.99506841 z m -57.12543,0 c 0,0 0.12562,0 -2.43849,0 l 0.0992,0.99506841 c 2.31287,0 2.3393,-0.99506841 2.3393,-0.99506841 z m -18.24603,0 c 0,0 -0.60167,-0.9950684 -14.81539,-0.9950684 -14.59057,0 -14.49138,0.9950684 -22.27351,0.9950684 l 0.0992,0.99506841 c 7.53089,0 7.4317,-0.99506841 22.27351,-0.99506841 15.21867,0 14.7162,0 14.7162,0 z m -71.00606,0 c 0,0 0.12562,0 -9.14007,0 -9.64255,0 -9.74174,-0.9950684 -11.78006,-0.9950684 -2.41518,0 -2.31599,0.9950684 -12.451352,0.9950684 -10.512217,0 -10.611408,-0.9950684 -19.76057,-0.9950684 -9.52602,0 -9.426829,0.9950684 -15.418463,0.9950684 -6.368492,0 -6.467683,-0.9950684 -10.75692,-0.9950684 -4.666096,0 -4.566905,0.9950684 -11.888623,0.9950684 -7.698577,0 -7.797768,-0.9950684 -12.803205,-0.9950684 -5.382295,0 -5.283104,0.9950684 -20.0226015,0.9950684 -15.1163565,0 -15.2155475,-0.9950684 -17.5608145,-0.9950684 -2.722126,0 -2.748554,0.9950684 -2.748554,0.9950684 0,0 -0.12562,0 2.847745,0 3.350223,0 3.449414,0.99506841 17.5608146,0.99506841 14.4882594,0 14.3890674,-0.99506841 20.0226014,-0.99506841 6.010393,0 6.109584,0.99506841 12.803205,0.99506841 7.070479,0 6.971288,-0.99506841 11.888623,-0.99506841 5.294193,0 5.393384,0.99506841 10.75692,0.99506841 5.740395,0 5.641204,-0.99506841 15.418463,-0.99506841 10.154118,0 10.253309,0.99506841 19.76057,0.99506841 9.884121,0 9.784931,-0.99506841 12.451351,-0.99506841 3.04328,0 3.14247,0.99506841 11.78006,0.99506841 9.01445,0 9.04088,-0.99506841 9.04088,-0.99506841 z"
       style="fill:none;stroke:#000000;stroke-width:2;stroke-linecap:round;stroke-linejoin:round;stroke-miterlimit:4;stroke-dasharray:none;stroke-opacity:1"
       inkscape:path-effect="#path-effect845"
       inkscape:original-d="M -21.489049,-1.386274 H 621.82643" />
    <text
       id="text836"
       y="34.01693"
       x="101.88489"
       style="font-size:28.0306px;line-height:1.25;font-family:'Neo Sans Pro';-inkscape-font-specification:'Neo Sans Pro';letter-spacing:0px;word-spacing:0px;stroke-width:0.437978"
       xml:space="preserve"><tspan
         style="font-style:normal;font-variant:normal;font-weight:normal;font-stretch:normal;font-size:28.0306px;font-family:'Vladimir Script';-inkscape-font-specification:'Vladimir Script';stroke-width:0.437978"
         y="34.01693"
         x="101.88489"
         id="tspan834"
         sodipodi:role="line">Du hast Fragen?  Schreib uns eine Mail!</tspan></text>
  </g>
</svg>
